<svg fill="none" height="20" viewBox="0 0 104 20" width="104" xmlns="http://www.w3.org/2000/svg">
  <g fill="#010101">
    <path d="m1.85258.00317383h2.51335c.48269 0 .94562.19176517 1.28694.53308117.34132.341317.53304.804215.53304 1.286905v1.01335c0 .239-.04704.47568-.13851.69649-.09146.22081-.22553.42145-.39453.59045-.169.16901-.36968.30303-.59049.39449-.22081.09147-.45745.13855-.69645.13855h-2.51335c-.23901 0-.47564-.04708-.69645-.13855-.220816-.09146-.421496-.22548-.590497-.39449-.169002-.169-.303068-.36964-.394531-.59045-.091464-.22081-.1385092-.45749-.1385092-.69649v-1.01335c0-.48269.1917242-.945588.5330402-1.286905.341314-.341316.804257-.53308117 1.286947-.53308117z" />
    <path d="m6.24 6.11658h-6.24v13.66002h6.24z" />
    <path d="m14.4795 19.7766v-14.00003c.0323-.43308.2191-.84014.5262-1.14722s.7141-.49376 1.1471-.52608h3.8468c.4412.02875.8567.21834 1.1676.53288.3108.31454.4955.73218.519 1.17378v13.99997h6.2468v-15.86666c-.0451-1.08885-.5204-2.11529-1.3216-2.85401-.8012-.738709-1.863-1.1292976-2.9518-1.08597521h-11.1534c-1.0882-.04329619-2.149.34749621-2.94924 1.08638521-.80014.73889-1.274 1.76533-1.31734 2.8536v15.83336z" />
    <path d="m36.1937 19.7765v-13.99993c.0324-.43308.219-.84014.5261-1.14722s.7142-.49376 1.1473-.52608h3.8534c.44.0303.8539.22056 1.1634.53495.3094.31439.4932.73118.5166 1.17171v13.99997h6.2466v-15.86667c-.0452-1.08765-.5195-2.11308-1.3192-2.8516-.7998-.738524-1.8597-1.1298937-2.9474-1.08838047h-11.1868c-1.0882-.04329623-2.1492.34749647-2.9493 1.08638047-.8002.7389-1.2739 1.76534-1.3173 2.8536v15.83327z" />
    <path d="m67.0466.00325479h-11.1535c-1.0888-.04332239-2.1505.34726621-2.9517 1.08597521-.8012.73872-1.2766 1.76516-1.3216 2.85401v11.89336c.0468 1.0882.5227 2.1137 1.3235 2.852s1.8614 1.1295 2.9498 1.088h11.1535c1.0887.0415 2.1487-.3497 2.95-1.088.8007-.7383 1.2767-1.7638 1.3234-2.852v-11.89336c-.0454-1.08885-.5207-2.11529-1.322-2.85401-.8007-.738709-1.8627-1.1292976-2.9514-1.08597521zm-3.64 15.68004521h-3.8801c-.4423-.0259-.8594-.2146-1.1708-.5298-.3114-.3151-.4953-.7343-.5159-1.1769v-8.21333c.0298-.43688.2173-.84809.5275-1.15711.3103-.30902.7222-.49484 1.1592-.52291h3.8533c.4414.02875.8567.21834 1.1675.53288s.4956.73218.5192 1.17378v8.22669c-.0296.4323-.2148.8392-.5212 1.1456s-.7132.4915-1.1454.5211" />
    <path d="m88.2993.00317383-8.74 15.02672617v-15.02672617h-6.2467v15.83332617c.0467 1.0882.5227 2.1137 1.3234 2.852.8006.7384 1.8613 1.1296 2.95 1.088h2c.664-.0073 1.3153-.1852 1.8906-.5168.576-.3316 1.0567-.8056 1.396-1.3765l10.38-17.87335298z" />
  </g>
  <path d="m94.9807 13.5567c0-.3718.0734-.74.2154-1.0833.1426-.3434.3513-.6553.6146-.9179.2634-.2625.576-.4706.9194-.6123.344-.1416.7119-.2141 1.0839-.2132.7494 0 1.4687.2978 1.9987.8279.5303.5301.8283 1.2491.8283 1.9988 0 .3718-.072.74-.214 1.0837s-.35.6561-.6123.9193c-.262.2632-.574.472-.9173.6145-.3434.1425-.712.2158-1.0834.2158-.7513 0-1.4719-.2985-2.0033-.8299-.5313-.5313-.83-1.252-.83-2.0034z" fill="#ed1c2e" />
  <path d="m99.66.00325479h-2c-.664.00728541-1.3154.18527821-1.8907.51684621-.576.331566-1.056.805549-1.396 1.376469l-10.38 17.88003h4.9267l8.74-15.02668v5.37338h.1266c.9113.0017 1.7847.365 2.4284 1.0099.644.6449 1.005 1.5189 1.005 2.43 0 .9112-.361 1.7852-1.005 2.4301-.6437.645-1.5171 1.0082-2.4284 1.01h-.1266v2.7866h6.247v-15.84666c-.045-1.08885-.52-2.11529-1.322-2.85401-.801-.738709-1.862-1.1292976-2.9517-1.08597521" fill="#010101" />
</svg>
