<svg fill="none" height="34" viewBox="0 0 34 34" width="34" xmlns="http://www.w3.org/2000/svg">
  <path d="m18.7597 23.2909c0-.6386.1252-1.2712.3677-1.8611.2436-.59.5998-1.1258 1.0495-1.5769.4496-.4511.9834-.8086 1.5696-1.052.5874-.2433 1.2157-.3679 1.8508-.3663 1.2794 0 2.5076.5116 3.4126 1.4223.9049.9108 1.4137 2.1461 1.4137 3.434.0011.6388-.1229 1.2714-.3642 1.8619-.2425.5906-.5976 1.1273-1.0461 1.5795-.4474.4522-.9801.8109-1.5663 1.0557-.5862.2447-1.2157.3707-1.8497.3707-1.2828 0-2.5132-.5129-3.4204-1.4257-.9072-.9129-1.4172-2.151-1.4172-3.4421z" fill="#ed1c2e" />
  <path d="m26.7493.00559187h-3.4148c-1.1338.01251663-2.2458.31831713-3.2282.88796413-.9834.569644-1.803 1.383964-2.3835 2.364834l-17.7228 30.71871h8.41179l14.92271-25.81652v9.23162h.2162c1.556.003 3.0472.6271 4.1467 1.7351 1.0984 1.1081 1.7154 2.6095 1.7154 4.1749 0 1.5655-.617 3.067-1.7154 4.1751-1.0995 1.108-2.5907 1.732-4.1467 1.7351h-.2162v4.7876h10.6655v-27.22534c-.0763-1.8707-.8878-3.63416-2.256-4.90331-1.3682-1.26914-3.1804-1.9401879-5.0403-1.86575813" fill="#010101" />
</svg>
