<svg width="20" height="20" viewBox="0 0 20 20" fill="none" xmlns="http://www.w3.org/2000/svg">
<path d="M10.9873 13.5567C10.9873 13.1849 11.0606 12.8167 11.2026 12.4734C11.3453 12.13 11.554 11.8181 11.8173 11.5555C12.0806 11.293 12.3933 11.0849 12.7366 10.9432C13.0806 10.8016 13.4486 10.7291 13.8206 10.73C14.57 10.73 15.2893 11.0278 15.8193 11.5579C16.3493 12.088 16.6473 12.807 16.6473 13.5567C16.648 13.9285 16.5753 14.2967 16.434 14.6404C16.292 14.9841 16.084 15.2965 15.8213 15.5597C15.5593 15.8229 15.2473 16.0317 14.904 16.1742C14.5606 16.3167 14.192 16.39 13.8206 16.39C13.0693 16.39 12.3486 16.0915 11.8173 15.5601C11.286 15.0288 10.9873 14.3081 10.9873 13.5567Z" fill="#ED1C2E"/>
<path d="M15.6667 0.00325479H13.6667C13.0027 0.0105402 12.3513 0.188533 11.776 0.520101C11.2 0.851667 10.72 1.32565 10.38 1.89657L0 19.7766H4.92667L13.6667 4.74992V10.1233H13.7933C14.7047 10.125 15.578 10.4883 16.222 11.1332C16.8653 11.7781 17.2267 12.6521 17.2267 13.5632C17.2267 14.4744 16.8653 15.3484 16.222 15.9933C15.578 16.6383 14.7047 17.0015 13.7933 17.0033H13.6667V19.7899H19.9133V3.94324C19.8687 2.85439 19.3933 1.82795 18.592 1.08923C17.7907 0.350521 16.7293 -0.0400676 15.64 0.00325479" fill="#005A9B"/>
</svg>
