<svg width="104" height="20" viewBox="0 0 104 20" fill="none" xmlns="http://www.w3.org/2000/svg">
<g clip-path="url(#clip0_115_748)">
<path fill-rule="evenodd" clip-rule="evenodd" d="M1.85252 0.00317383H4.36587C4.84856 0.00317383 5.31149 0.194939 5.65281 0.536255C5.99413 0.877572 6.18585 1.34047 6.18585 1.82316V2.83651C6.18585 3.07551 6.13881 3.31219 6.04734 3.533C5.95588 3.75381 5.82181 3.95445 5.65281 4.12345C5.48381 4.29246 5.28313 4.42648 5.06232 4.51794C4.84151 4.60941 4.60487 4.65649 4.36587 4.65649H1.85252C1.61351 4.65649 1.37688 4.60941 1.15607 4.51794C0.935253 4.42648 0.734573 4.29246 0.565572 4.12345C0.39657 3.95445 0.262504 3.75381 0.171041 3.533C0.079577 3.31219 0.0325317 3.07551 0.0325317 2.83651V1.82316C0.0325317 1.34047 0.224256 0.877572 0.565572 0.536255C0.906886 0.194939 1.36983 0.00317383 1.85252 0.00317383Z" fill="#005A9B"/>
<path d="M6.24 6.1167H0V19.7767H6.24V6.1167Z" fill="#005A9B"/>
<path d="M14.4795 19.7766V5.77657C14.5118 5.34349 14.6986 4.93643 15.0057 4.62935C15.3128 4.32227 15.7198 4.13559 16.1528 4.10327H19.9996C20.4408 4.13202 20.8563 4.32161 21.1672 4.63615C21.478 4.95069 21.6627 5.36833 21.6862 5.80993V19.8099H27.933V3.94324C27.8879 2.85439 27.4126 1.82795 26.6114 1.08923C25.8102 0.350521 24.7484 -0.0400676 23.6596 0.00325479H12.5062C11.418 -0.0400414 10.3572 0.350751 9.55696 1.08964C8.75682 1.82853 8.28296 2.85497 8.23962 3.94324V19.7766H14.4795Z" fill="#005A9B"/>
<path d="M36.1937 19.7765V5.77657C36.226 5.34349 36.4127 4.93643 36.7197 4.62935C37.0268 4.32227 37.4339 4.13559 37.867 4.10327H41.7204C42.1605 4.13357 42.5743 4.32383 42.8838 4.63822C43.1933 4.95261 43.377 5.3694 43.4004 5.80993V19.8099H49.647V3.94323C49.6019 2.85558 49.1275 1.83015 48.3278 1.09163C47.5281 0.353106 46.4681 -0.0382637 45.3804 0.00324953H34.1937C33.1054 -0.0400467 32.0445 0.350746 31.2443 1.08963C30.4441 1.82853 29.9704 2.85497 29.9271 3.94323V19.7765H36.1937Z" fill="#005A9B"/>
<path d="M67.0467 0.00325479H55.8932C54.8043 -0.0400676 53.7426 0.350521 52.9414 1.08923C52.1402 1.82795 51.6649 2.85439 51.6198 3.94324V15.8366C51.6666 16.9248 52.1425 17.9503 52.9433 18.6886C53.7442 19.4269 54.8048 19.8181 55.8932 19.7766H67.0467C68.1353 19.8181 69.1953 19.4269 69.9967 18.6886C70.7973 17.9503 71.2733 16.9248 71.32 15.8366V3.94324C71.2747 2.85439 70.7993 1.82795 69.998 1.08923C69.1973 0.350521 68.1353 -0.0400676 67.0467 0.00325479ZM63.4066 15.6833H59.5265C59.0842 15.6574 58.6672 15.4687 58.3558 15.1535C58.0443 14.8384 57.8605 14.4192 57.8399 13.9766V5.76327C57.8697 5.32639 58.0571 4.91518 58.3673 4.60616C58.6776 4.29714 59.0895 4.11132 59.5265 4.08325H63.3799C63.8212 4.112 64.2365 4.30159 64.5473 4.61613C64.8582 4.93067 65.043 5.34831 65.0666 5.78991V14.0166C65.037 14.4489 64.8518 14.8558 64.5454 15.1622C64.239 15.4686 63.8322 15.6537 63.3999 15.6833" fill="#005A9B"/>
<path d="M88.2994 0.00317383L79.5593 15.0299V0.00317383H73.3127V15.8365C73.3593 16.9247 73.8354 17.9502 74.636 18.6885C75.4367 19.4269 76.4973 19.8181 77.586 19.7765H79.586C80.25 19.7692 80.9013 19.5913 81.4767 19.2597C82.0527 18.9281 82.5333 18.4541 82.8727 17.8832L93.2527 0.00984702L88.2994 0.00317383Z" fill="#005A9B"/>
<path d="M94.9807 13.5567C94.9807 13.1849 95.054 12.8167 95.196 12.4734C95.3387 12.13 95.5473 11.8181 95.8107 11.5555C96.074 11.293 96.3867 11.0849 96.73 10.9432C97.074 10.8016 97.442 10.7291 97.814 10.73C98.5633 10.73 99.2827 11.0278 99.8127 11.5579C100.343 12.088 100.641 12.807 100.641 13.5567C100.641 13.9285 100.569 14.2967 100.427 14.6404C100.285 14.9841 100.077 15.2965 99.8147 15.5597C99.5527 15.8229 99.2407 16.0317 98.8973 16.1742C98.554 16.3167 98.1853 16.39 97.814 16.39C97.0627 16.39 96.342 16.0915 95.8107 15.5601C95.2793 15.0288 94.9807 14.3081 94.9807 13.5567Z" fill="#ED1C2E"/>
<path d="M99.66 0.00325479H97.66C96.996 0.0105402 96.3447 0.188533 95.7694 0.520101C95.1934 0.851667 94.7133 1.32565 94.3733 1.89657L83.9933 19.7766H88.92L97.66 4.74992V10.1233H97.7867C98.698 10.125 99.5713 10.4883 100.215 11.1332C100.859 11.7781 101.22 12.6521 101.22 13.5632C101.22 14.4744 100.859 15.3484 100.215 15.9933C99.5713 16.6383 98.698 17.0015 97.7867 17.0033H97.66V19.7899H103.907V3.94324C103.862 2.85439 103.387 1.82795 102.585 1.08923C101.784 0.350521 100.723 -0.0400676 99.6333 0.00325479" fill="#005A9B"/>
</g>
<defs>
<clipPath id="clip0_115_748">
<rect width="104" height="20" fill="white"/>
</clipPath>
</defs>
</svg>
