<svg width="24" height="24" viewBox="0 0 24 24" fill="none" xmlns="http://www.w3.org/2000/svg">
<path d="M21.7499 20.6894L16.0859 15.0253C17.4469 13.3913 18.1256 11.2955 17.9808 9.17387C17.8359 7.05224 16.8787 5.06812 15.3082 3.63426C13.7378 2.20041 11.675 1.42721 9.54894 1.47552C7.42292 1.52384 5.39736 2.38993 3.89365 3.89365C2.38993 5.39736 1.52384 7.42292 1.47552 9.54894C1.42721 11.675 2.20041 13.7378 3.63426 15.3082C5.06812 16.8787 7.05224 17.8359 9.17387 17.9808C11.2955 18.1256 13.3913 17.4469 15.0253 16.0859L20.6894 21.7499L21.7499 20.6894ZM2.99993 9.74993C2.99993 8.41491 3.39581 7.10987 4.13751 5.99983C4.87921 4.8898 5.93342 4.02464 7.16682 3.51375C8.40022 3.00285 9.75742 2.86918 11.0668 3.12963C12.3762 3.39008 13.5789 4.03296 14.5229 4.97696C15.4669 5.92097 16.1098 7.1237 16.3702 8.43307C16.6307 9.74245 16.497 11.0996 15.9861 12.333C15.4752 13.5664 14.6101 14.6207 13.5 15.3624C12.39 16.1041 11.085 16.4999 9.74993 16.4999C7.96033 16.4979 6.2446 15.7862 4.97916 14.5207C3.71371 13.2553 3.00192 11.5395 2.99993 9.74993Z" fill="#002946"/>
</svg>
