<svg width="24" height="24" viewBox="0 0 24 24" fill="none" xmlns="http://www.w3.org/2000/svg">
<g clip-path="url(#clip0_169_743)">
<path d="M12 24C18.6274 24 24 18.6274 24 12C24 5.37258 18.6274 0 12 0C5.37258 0 0 5.37258 0 12C0 18.6274 5.37258 24 12 24Z" fill="#D80027"/>
<path d="M15.3613 9.80615L16.3457 11.1655L17.9395 10.6452L16.9551 12.0046L17.9395 13.3593L16.3457 12.839L15.3613 14.1983V12.5155L13.7676 11.9952L15.3613 11.4796V9.80615Z" fill="#EEEEEE"/>
<path d="M12.6755 15.389C12.1605 15.3875 11.6526 15.2687 11.1903 15.0416C10.7281 14.8145 10.3237 14.485 10.0079 14.0782C9.69206 13.6713 9.47311 13.1979 9.36767 12.6938C9.26222 12.1897 9.27306 11.6682 9.39935 11.1689C9.52564 10.6696 9.76407 10.2056 10.0965 9.81226C10.429 9.41891 10.8467 9.1065 11.318 8.89877C11.7892 8.69103 12.3017 8.59344 12.8163 8.6134C13.3309 8.63336 13.8342 8.77035 14.288 9.01397C13.7008 8.4401 12.9574 8.05225 12.1507 7.899C11.3441 7.74575 10.5102 7.83392 9.75349 8.15247C8.99676 8.47101 8.35084 9.00577 7.89665 9.68974C7.44246 10.3737 7.2002 11.1765 7.2002 11.9976C7.2002 12.8186 7.44246 13.6214 7.89665 14.3054C8.35084 14.9894 8.99676 15.5241 9.75349 15.8427C10.5102 16.1612 11.3441 16.2494 12.1507 16.0961C12.9574 15.9429 13.7008 15.555 14.288 14.9812C13.7929 15.2495 13.2386 15.3897 12.6755 15.389Z" fill="#EEEEEE"/>
</g>
<defs>
<clipPath id="clip0_169_743">
<rect width="24" height="24" fill="white"/>
</clipPath>
</defs>
</svg>
